<svg width="100" height="100" viewBox="0 0 100 100" fill="none" xmlns="http://www.w3.org/2000/svg">
<path fill-rule="evenodd" clip-rule="evenodd" d="M50.0164 4.1852C44.3553 0.92057 30.1666 -3.39717 16.4011 4.34594C14.5791 5.43911 11.8097 8.17205 15.3079 10.3584C16.6208 11.179 17.1453 11.5068 17.1033 11.7265C17.0056 12.2386 13.8309 12.1636 10.3886 16.3709C5.46926 22.3834 -1.08984 39.3278 1.64312 51.3528C3.41927 59.1678 4.27194 56.3632 5.25143 53.1414C5.77909 51.4058 6.34354 49.5491 7.10899 49.1664C7.85201 48.7949 7.77437 50.0016 7.62695 52.293C7.34057 56.7442 6.79084 65.2887 11.4817 74.3096C18.5874 87.9744 26.2397 90.7074 26.2397 85.2415C26.2397 81.9405 27.0371 83.4239 28.2707 85.7189C29.0798 87.224 30.0765 89.0783 31.159 90.1608C33.8411 92.8428 40.208 99.2097 49.7431 99.9627V99.9995C49.8345 99.9944 49.9256 99.9888 50.0164 99.9827C50.1073 99.9888 50.1983 99.9944 50.2897 99.9995V99.9627C59.8249 99.2097 66.1918 92.8428 68.8738 90.1608C69.9563 89.0783 70.9531 87.224 71.7622 85.7189C72.9958 83.4239 73.7932 81.9405 73.7932 85.2415C73.7932 90.7074 81.4454 87.9744 88.5511 74.3096C93.242 65.2887 92.6923 56.7442 92.4059 52.293C92.2585 50.0016 92.1809 48.7949 92.9239 49.1664C93.6893 49.5491 94.2538 51.4058 94.7814 53.1414C95.7609 56.3632 96.6136 59.1678 98.3897 51.3528C101.123 39.3278 94.5636 22.3834 89.6443 16.3709C86.2019 12.1636 83.0273 12.2386 82.9295 11.7265C82.8876 11.5068 83.4121 11.179 84.725 10.3584C88.2232 8.17205 85.4538 5.43911 83.6318 4.34594C69.8663 -3.39717 55.6775 0.92057 50.0164 4.1852Z" fill="#FF872D"/>
<path fill-rule="evenodd" clip-rule="evenodd" d="M50.0177 22.2066C45.1304 19.1262 34.0818 15.0876 26.7875 22.3819C17.5369 31.6325 9.3698 74.4697 49.7446 74.8522V74.8547C49.8359 74.8547 49.9269 74.8545 50.0177 74.8541C50.1086 74.8545 50.1996 74.8547 50.2909 74.8547V74.8522C90.6657 74.4697 82.4986 31.6325 73.248 22.3819C65.9536 15.0876 54.905 19.1262 50.0177 22.2066Z" fill="#FAD17B"/>
<circle cx="41.9947" cy="36.6219" r="2.73296" fill="#482B14"/>
<circle cx="57.2999" cy="36.6219" r="2.73296" fill="#482B14"/>
<path fill-rule="evenodd" clip-rule="evenodd" d="M49.6686 43.7384C46.6329 43.6357 41.4492 44.1569 41.4492 47.0431C41.4492 50.8692 47.4617 53.0556 49.6481 53.0556C49.655 53.0556 49.6618 53.0555 49.6686 53.0553C49.6754 53.0555 49.6822 53.0556 49.6891 53.0556C51.8754 53.0556 57.888 50.8692 57.888 47.0431C57.888 44.1569 52.7043 43.6357 49.6686 43.7384Z" fill="#985B2D"/>
<path fill-rule="evenodd" clip-rule="evenodd" d="M49.6484 50.9277C50.2007 50.9277 50.6484 51.3754 50.6484 51.9277V57.3937C50.6484 57.9459 50.2007 58.3937 49.6484 58.3937C49.0962 58.3937 48.6484 57.9459 48.6484 57.3937V51.9277C48.6484 51.3754 49.0962 50.9277 49.6484 50.9277Z" fill="#985B2D"/>
<path fill-rule="evenodd" clip-rule="evenodd" d="M42.3808 55.0448C42.7713 54.6543 43.4045 54.6543 43.795 55.0448C44.5951 55.8449 46.9429 57.4849 49.647 57.4849C52.3511 57.4849 54.6989 55.8449 55.499 55.0448C55.8895 54.6543 56.5227 54.6543 56.9132 55.0448C57.3037 55.4354 57.3037 56.0685 56.9132 56.4591C55.8913 57.4809 53.0648 59.4849 49.647 59.4849C46.2292 59.4849 43.4027 57.4809 42.3808 56.4591C41.9903 56.0685 41.9903 55.4354 42.3808 55.0448Z" fill="#985B2D"/>
<path fill-rule="evenodd" clip-rule="evenodd" d="M44.1554 31.9439C42.3115 31.6745 40.3041 31.3812 38.5 31.1558C34.4522 30.6502 25.6667 31.3332 21.5 31.9999L20.5 35.5C21.5 35.8333 24 36.756 24 39.156C24 39.3803 23.9944 39.6241 23.9885 39.8839C23.9148 43.0998 23.7849 48.7682 33.5 50.156C42.5052 51.4425 45.2583 43.5347 46.4905 39.9954C46.695 39.4079 46.8576 38.9408 47 38.656C47.8 37.056 49 36.656 49.5 36.656C50 36.656 51.2 37.056 52 38.656C52.1424 38.9408 52.305 39.4079 52.5095 39.9954C53.7417 43.5347 56.4948 51.4425 65.5 50.156C75.2151 48.7682 75.0852 43.0998 75.0115 39.8839C75.0056 39.6241 75 39.3803 75 39.156C75 36.756 78.5 35.3334 79.5 35L78.5 32.0002C74.3333 31.3335 64.5478 30.6502 60.5 31.1558C58.6959 31.3812 56.6885 31.6745 54.8446 31.9439C52.6001 32.2718 50.598 32.5643 49.5 32.6558C48.402 32.5643 46.3999 32.2718 44.1554 31.9439Z" fill="#303030"/>
<path d="M36.5003 33.1543C41.7003 33.1543 44.0003 34.821 44.5003 35.6543C45.5007 37.1543 44 42.6543 41 45.6543C38 48.6543 34.0003 48.1543 30.0003 46.6543C26.0003 45.1543 26.5003 38.6543 27.0003 35.6543C27.5003 32.6543 30.0003 33.1543 36.5003 33.1543Z" fill="#212121"/>
<path d="M36.5003 33.1543C41.7003 33.1543 44.0003 34.821 44.5003 35.6543C45.5007 37.1543 44 42.6543 41 45.6543C38 48.6543 34.0003 48.1543 30.0003 46.6543C26.0003 45.1543 26.5003 38.6543 27.0003 35.6543C27.5003 32.6543 30.0003 33.1543 36.5003 33.1543Z" fill="url(#paint0_linear_5_2011)"/>
<path d="M62.3083 33.0312C57.1083 33.0312 54.8083 34.6979 54.3083 35.5312C53.3079 37.0312 54.8086 42.5312 57.8086 45.5312C60.8086 48.5312 64.8083 48.0312 68.8083 46.5312C72.8083 45.0312 72.3083 38.5312 71.8083 35.5312C71.3083 32.5312 68.8083 33.0312 62.3083 33.0312Z" fill="url(#paint1_linear_5_2011)"/>
<defs>
<linearGradient id="paint0_linear_5_2011" x1="35.738" y1="33.123" x2="35.738" y2="47.8471" gradientUnits="userSpaceOnUse">
<stop stop-color="#636363"/>
<stop offset="1" stop-color="#212121" stop-opacity="0"/>
</linearGradient>
<linearGradient id="paint1_linear_5_2011" x1="63.0706" y1="33" x2="63.0706" y2="47.724" gradientUnits="userSpaceOnUse">
<stop stop-color="#636363"/>
<stop offset="1" stop-color="#212121" stop-opacity="0"/>
</linearGradient>
</defs>
</svg>
